<svg xmlns="http://www.w3.org/2000/svg" width="1390.324" height="314.129" viewBox="0 0 1390.324 314.129"><g transform="translate(0.328 0.217)" opacity="0.15" style="isolation:isolate"><g transform="translate(144.31 109.964)" style="mix-blend-mode:overlay;isolation:isolate"><path d="M461.331,289.007s56.24-69.042,118.1-27.616,80.609,51.782,123.727,24.164S744.4,251.034,766.9,275.2s33.744,37.973,114.353-13.809,99.357,62.139,166.845,41.425,69.362-89.756,127.477-41.425,69.362,48.33,88.108,41.425,20.621-34.521,48.741-24.164,31.869,20.712,58.115,0,35.617-34.523,84.36,3.45,104.979-3.45,104.979-3.45" transform="translate(-443.833 -244.562)" fill="none" stroke="#99999c" stroke-linecap="round" stroke-miterlimit="10" stroke-width="0.5"/><path d="M1559.21,278.566s-56.24,36.164-105.606,1.972-59.185-20.548-86.234-2.138-30.53,8.221-58.382-.493-30.172,18.247-51.865,22.357-33.3,9.535-91.858-37.481-60.435,15.453-127.476,37.481-85.43-86.469-163.094-37.481-88.465,34.521-111.23,12-21.157-15.453-63.47,9.862-60.614,14.8-121.852-22.85-117.478,26.139-117.478,26.139" transform="translate(-444 -243.106)" fill="none" stroke="#99999c" stroke-linecap="round" stroke-miterlimit="10" stroke-width="0.5"/><path d="M1558.543,278.516s-56.24,30.905-106.231.493-60.257-16.932-88.108-.822-31.066,6.083-58.65-.985-30.352,19.232-54.99,20.548-36.6,12.164-95.607-33.536-60.882,10.191-127.476,33.536-84.627-79.728-159.346-33.536-85.073,31.069-108.105,10.191-21.692-13.644-63.2,9.372S637.465,296.1,576.85,262.242,460,286.9,460,286.9" transform="translate(-444.166 -241.686)" fill="none" stroke="#99999c" stroke-linecap="round" stroke-miterlimit="10" stroke-width="0.5"/><path d="M1557.876,278.51s-56.239,25.646-106.854-.985-61.328-13.317-89.984.493-31.6,3.945-58.917-1.48-30.531,20.219-58.115,18.741-39.9,14.794-99.356-29.591-61.328,4.932-127.477,29.591-83.823-72.989-155.6-29.591S779.9,293.3,756.6,274.073s-22.228-11.837-62.935,8.877-58.115,9.862-118.1-20.221-116.229,23.179-116.229,23.179" transform="translate(-444.333 -240.311)" fill="none" stroke="#99999c" stroke-linecap="round" stroke-miterlimit="10" stroke-width="0.5"/><path d="M1557.21,278.558s-56.24,20.385-107.48-2.465-62.4-9.7-91.858,1.809-32.137,1.807-59.186-1.972-30.708,21.2-61.239,16.93-43.205,17.425-103.106-25.644-61.774-.329-127.477,25.644-83.02-66.248-151.845-25.644-78.289,24.166-101.856,6.576S730.4,263.763,690.5,282.176s-56.864,7.4-116.228-18.9-115.6,21.7-115.6,21.7" transform="translate(-444.499 -238.989)" fill="none" stroke="#99999c" stroke-linecap="round" stroke-miterlimit="10" stroke-width="0.5"/><path d="M1556.543,278.673s-56.24,15.123-108.105-3.947-63.47-6.081-93.732,3.125-32.673-.329-59.453-2.467-30.887,22.194-64.363,15.123-46.51,20.056-106.855-21.7-62.22-5.588-127.476,21.7-82.216-59.509-148.1-21.7-74.9,20.714-98.732,4.767-23.3-8.219-62.4,7.892-55.615,4.932-114.354-17.591S458,284.1,458,284.1" transform="translate(-444.666 -237.733)" fill="none" stroke="#99999c" stroke-linecap="round" stroke-miterlimit="10" stroke-width="0.5"/><path d="M1555.876,278.867s-56.239,9.862-108.729-5.425-64.542-2.467-95.608,4.437-33.208-2.465-59.721-2.958-31.066,23.179-67.487,13.314-49.812,22.686-110.6-17.754-62.666-10.849-127.476,17.754S904.838,235.469,841.9,270.482s-71.5,17.262-95.607,2.96-23.834-6.412-62.132,7.4S629.8,283.3,571.685,264.565,457.331,283.3,457.331,283.3" transform="translate(-444.833 -236.557)" fill="none" stroke="#99999c" stroke-linecap="round" stroke-miterlimit="10" stroke-width="0.5"/><path d="M1555.21,279.159s-56.24,4.6-109.355-6.9-65.612,1.151-97.482,5.754-33.744-4.6-59.989-3.452-31.243,24.166-70.612,11.508-53.115,25.315-114.353-13.809-63.114-16.109-127.476,13.809-80.61-46.029-140.6-13.809-68.112,13.809-92.483,1.151-24.371-4.6-61.863,6.9-53.115,0-110.605-14.96-113.728,17.262-113.728,17.262" transform="translate(-444.999 -235.479)" fill="none" stroke="#99999c" stroke-linecap="round" stroke-miterlimit="10" stroke-width="0.5"/><path d="M1554.543,279.568s-56.24-.656-109.98-8.382-66.683,4.766-99.356,7.068-34.279-6.739-60.256-3.945-31.423,25.151-73.737,9.7-56.417,27.945-118.1-9.864-63.559-21.37-127.476,9.864-79.807-39.29-136.849-9.864-64.72,10.357-89.359-.656-24.905-2.8-61.6,6.41-51.865-2.465-108.73-13.644S456,282.036,456,282.036" transform="translate(-445.166 -234.52)" fill="none" stroke="#99999c" stroke-linecap="round" stroke-miterlimit="10" stroke-width="0.5"/><path d="M1553.876,280.12s-56.239-5.92-110.6-9.864-67.756,8.385-101.231,8.385-34.815-8.877-60.524-4.44-31.6,26.139-76.861,7.892-59.722,30.576-121.852-5.92-64.006-26.629-127.476,5.92-79-32.548-133.1-5.92-61.328,6.9-86.235-2.465-25.441-.987-61.328,5.917-50.614-4.93-106.854-12.329-112.48,14.3-112.48,14.3" transform="translate(-445.332 -233.699)" fill="none" stroke="#99999c" stroke-linecap="round" stroke-miterlimit="10" stroke-width="0.5"/><path d="M1553.21,280.826s-56.24-11.179-111.23-11.344-68.827,12-103.106,9.7-35.35-11.015-60.792-4.932-31.78,27.124-79.986,6.081-63.024,33.207-125.6-1.972-64.452-31.89-127.476,1.972-78.2-25.807-129.351-1.972-57.936,3.452-83.109-4.274-25.978.822-61.06,5.425-49.366-7.4-104.981-11.013-111.853,12.822-111.853,12.822" transform="translate(-445.499 -233.036)" fill="none" stroke="#99999c" stroke-linecap="round" stroke-miterlimit="10" stroke-width="0.5"/><path d="M1552.543,281.7s-56.24-16.438-111.855-12.822-69.9,15.616-104.979,11.013-35.887-13.151-61.061-5.425-31.958,28.111-83.11,4.274-66.327,35.837-129.351,1.972-64.9-37.152-127.475-1.972-77.4-19.068-125.6,1.972-54.544,0-79.986-6.081-26.513,2.631-60.793,4.932-48.116-9.865-103.106-9.7S454,281.207,454,281.207" transform="translate(-445.665 -232.541)" fill="none" stroke="#99999c" stroke-linecap="round" stroke-miterlimit="10" stroke-width="0.5"/><path d="M1551.877,282.741s-56.239-21.7-112.479-14.3-70.969,19.234-106.855,12.329-36.421-15.287-61.328-5.917-32.137,29.1-86.233,2.465-69.63,38.468-133.1,5.917-65.345-42.411-127.476-5.917-76.593-12.329-121.852,5.917-51.152-3.45-76.861-7.89-27.049,4.44-60.524,4.44S618.3,267.454,563.936,271.4s-110.6,9.862-110.6,9.862" transform="translate(-445.832 -232.212)" fill="none" stroke="#99999c" stroke-linecap="round" stroke-miterlimit="10" stroke-width="0.5"/><path d="M1551.21,283.939s-56.24-26.958-113.1-15.779-72.04,22.85-108.729,13.644-36.958-17.425-61.6-6.412-32.316,30.083-89.358.658-72.932,41.1-136.85,9.864-65.791-47.674-127.477-9.864-75.788-5.588-118.1,9.864-47.759-6.9-73.736-9.7S694.673,282.461,662,280.16s-45.616-14.8-99.357-7.07-109.979,8.385-109.979,8.385" transform="translate(-445.998 -232.041)" fill="none" stroke="#99999c" stroke-linecap="round" stroke-miterlimit="10" stroke-width="0.5"/><path d="M1550.543,285.278s-56.24-32.222-113.728-17.262-73.113,26.468-110.6,14.96-37.494-19.563-61.864-6.9-32.493,31.069-92.482-1.151-76.236,43.727-140.6,13.809S965.027,235.8,903.789,274.921,828.8,276.072,789.435,288.73s-44.366-10.357-70.612-11.508-28.12,8.055-59.988,3.452-44.368-17.262-97.482-5.754S452,281.826,452,281.826" transform="translate(-446.165 -232.008)" fill="none" stroke="#99999c" stroke-linecap="round" stroke-miterlimit="10" stroke-width="0.5"/><path d="M1549.876,286.734s-56.239-37.481-114.353-18.741-74.182,30.083-112.48,16.276-38.029-21.7-62.13-7.4-32.673,32.056-95.608-2.958-79.538,46.358-144.348,17.754-66.683-58.195-127.476-17.754-74.182,7.89-110.6,17.754-40.975-13.809-67.488-13.317-28.655,9.864-59.721,2.96-43.117-19.727-95.607-4.44-108.73,5.425-108.73,5.425" transform="translate(-446.332 -232.094)" fill="none" stroke="#99999c" stroke-linecap="round" stroke-miterlimit="10" stroke-width="0.5"/><path d="M1549.21,288.287s-56.24-42.74-114.979-20.219-75.254,33.7-114.353,17.588-38.565-23.835-62.4-7.89-32.852,33.041-98.732-4.766-82.842,48.986-148.1,21.7S943.519,231.245,883.173,273s-73.38,14.629-106.855,21.7-37.582-17.262-64.363-15.123-29.191,11.671-59.454,2.465-41.867-22.192-93.732-3.123-108.1,3.945-108.1,3.945" transform="translate(-446.498 -232.278)" fill="none" stroke="#99999c" stroke-linecap="round" stroke-miterlimit="10" stroke-width="0.5"/><path d="M1548.543,289.922s-56.24-48-115.6-21.7-76.326,37.317-116.229,18.9-39.1-25.973-62.667-8.385-33.029,34.028-101.856-6.576-86.145,51.619-151.847,25.646S932.765,229.1,872.865,272.167,800.29,293.539,769.76,297.813,735.57,277.1,708.521,280.881s-29.727,13.48-59.186,1.972-40.617-24.659-91.857-1.809S450,283.512,450,283.512" transform="translate(-446.665 -232.544)" fill="none" stroke="#99999c" stroke-linecap="round" stroke-miterlimit="10" stroke-width="0.5"/><path d="M1547.876,291.623s-56.239-53.262-116.228-23.179-77.4,40.933-118.1,20.219-39.636-28.111-62.935-8.877S1217.4,314.8,1145.63,271.4s-89.448,54.25-155.6,29.591S922.012,227.019,862.558,271.4s-71.773,28.111-99.357,29.591-30.8-24.166-58.115-18.741-30.262,15.289-58.918,1.48-39.367-27.124-89.983-.493-106.855.987-106.855.987" transform="translate(-446.831 -232.873)" fill="none" stroke="#99999c" stroke-linecap="round" stroke-miterlimit="10" stroke-width="0.5"/><path d="M1547.21,293.377s-56.24-58.521-116.854-24.659-78.467,44.549-119.977,21.535-40.171-30.247-63.2-9.37-33.387,36-108.1-10.194-92.751,56.878-159.346,33.536S911.257,224.991,852.25,270.69s-70.969,34.85-95.607,33.536-27.406-27.616-54.99-20.548-30.8,17.1-58.65.985-38.118-29.589-88.109.822-106.229-.493-106.229-.493" transform="translate(-446.998 -233.257)" fill="none" stroke="#99999c" stroke-linecap="round" stroke-miterlimit="10" stroke-width="0.5"/><path d="M1546.543,295.174s-56.24-63.783-117.478-26.139-79.539,48.167-121.852,22.852-40.707-32.385-63.471-9.864-33.564,36.988-111.229-12-96.054,59.509-163.1,37.481S900.5,223.009,841.942,270.022s-70.165,41.591-91.858,37.481-24.013-31.069-51.865-22.357-31.333,18.9-58.382.493-36.867-32.054-86.233,2.138S448,285.8,448,285.8" transform="translate(-447.164 -233.685)" fill="none" stroke="#99999c" stroke-linecap="round" stroke-miterlimit="10" stroke-width="0.5"/><path d="M1545.877,297.007s-56.239-69.042-118.1-27.616-80.61,51.782-123.727,24.164-41.242-34.521-63.737-10.355-33.744,37.973-114.354-13.809-99.357,62.139-166.844,41.425-69.362-89.756-127.477-41.425-69.362,48.33-88.109,41.425S722.9,276.3,694.785,286.653s-31.868,20.712-58.113,0-35.619-34.523-84.36,3.45-104.981-3.45-104.981-3.45" transform="translate(-447.331 -234.149)" fill="none" stroke="#99999c" stroke-linecap="round" stroke-miterlimit="10" stroke-width="0.5"/></g><g transform="translate(0)" style="mix-blend-mode:overlay;isolation:isolate"><path d="M349.3,371.193s70.028-270.928,147.059-108.37,100.374,203.2,154.061,94.824,51.354-135.464,79.365-40.638S771.8,466.019,872.175,262.823s123.716,243.835,207.749,162.556,86.368-352.207,158.731-162.556,86.367,189.649,109.71,162.556,25.676-135.464,60.69-94.824,39.683,81.279,72.363,0S1525.77,195.091,1586.46,344.1s130.718-13.547,130.718-13.547" transform="translate(-327.512 -196.783)" fill="none" stroke="#99999c" stroke-linecap="round" stroke-miterlimit="10" stroke-width="0.5"/><path d="M1716.349,330.216s-70.028,141.915-131.5,7.742-73.7-80.635-107.375-8.387-38.016,32.254-72.7-1.936-37.57,71.6-64.581,87.73-41.461,37.414-114.38-147.075-75.252,60.636-158.73,147.075S960.714,76.061,864.009,268.291s-110.155,135.464-138.5,47.09-26.344-60.636-79.032,38.705S571,412.142,494.75,264.419,348.469,366.985,348.469,366.985" transform="translate(-327.719 -191.07)" fill="none" stroke="#99999c" stroke-linecap="round" stroke-miterlimit="10" stroke-width="0.5"/><path d="M1715.519,330.023s-70.028,121.273-132.275,1.936-75.03-66.441-109.711-3.224-38.682,23.867-73.029-3.871-37.792,75.472-68.472,80.635-45.574,47.734-119.048-131.6-75.808,39.994-158.729,131.6S948.88,92.637,855.842,273.9,749.91,395.819,721.233,313.9s-27.011-53.541-78.7,36.769-73.919,48.381-149.393-84.5-145.5,96.759-145.5,96.759" transform="translate(-327.927 -185.5)" fill="none" stroke="#99999c" stroke-linecap="round" stroke-miterlimit="10" stroke-width="0.5"/><path d="M1714.688,330s-70.028,100.63-133.053-3.871-76.364-52.25-112.045,1.936-39.35,15.482-73.363-5.8-38.015,79.343-72.362,73.537-49.686,58.056-123.716-116.113-76.365,19.354-158.731,116.113S937.045,109.387,847.676,279.685s-101.707,108.373-130.718,32.9-27.679-46.443-78.366,34.834-72.361,38.7-147.059-79.343-144.724,90.955-144.724,90.955" transform="translate(-328.134 -180.103)" fill="none" stroke="#99999c" stroke-linecap="round" stroke-miterlimit="10" stroke-width="0.5"/><path d="M1713.859,330.19s-70.028,79.988-133.832-9.678-77.7-38.058-114.378,7.1-40.016,7.1-73.7-7.742-38.237,83.215-76.253,66.443-53.8,68.376-128.384-100.63-76.921-1.291-158.731,100.63S925.21,126.347,839.509,285.681s-97.483,94.824-126.829,25.8-28.344-39.349-78.031,32.9S563.843,373.409,489.925,270.2s-143.947,85.148-143.947,85.148" transform="translate(-328.341 -174.915)" fill="none" stroke="#99999c" stroke-linecap="round" stroke-miterlimit="10" stroke-width="0.5"/><path d="M1713.029,330.635S1643,389.982,1578.42,315.155s-79.032-23.869-116.714,12.256-40.682-1.291-74.029-9.676-38.46,87.083-80.144,59.345-57.912,78.7-133.053-85.148S1097.005,270,1015.75,377.08,913.375,143.565,831.343,291.932s-93.26,81.279-122.938,18.707-29.011-32.254-77.7,30.963-69.251,19.351-142.391-69.023-143.168,79.343-143.168,79.343" transform="translate(-328.549 -169.986)" fill="none" stroke="#99999c" stroke-linecap="round" stroke-miterlimit="10" stroke-width="0.5"/><path d="M1712.2,331.4s-70.028,38.7-135.387-21.287-80.365-9.676-119.048,17.416-41.349-9.676-74.364-11.611-38.681,90.955-84.033,52.252-62.024,89.019-137.721-69.668-78.03-42.574-158.729,69.668S901.541,161.1,823.177,298.5s-89.036,67.732-119.048,11.611-29.678-25.158-77.364,29.027-67.693,9.676-140.056-63.861-142.39,73.537-142.39,73.537" transform="translate(-328.756 -165.372)" fill="none" stroke="#99999c" stroke-linecap="round" stroke-miterlimit="10" stroke-width="0.5"/><path d="M1711.369,332.545s-70.028,18.062-136.166-27.094-81.7,4.516-121.381,22.578-42.017-18.062-74.7-13.547-38.9,94.826-87.924,45.154-66.137,99.341-142.389-54.185-78.587-63.216-158.731,54.185S889.707,179.018,815.01,305.451s-84.811,54.185-115.157,4.516-30.346-18.062-77.031,27.094-66.137,0-137.721-58.7-141.613,67.732-141.613,67.732" transform="translate(-328.964 -161.143)" fill="none" stroke="#99999c" stroke-linecap="round" stroke-miterlimit="10" stroke-width="0.5"/><path d="M1710.539,334.154s-70.028-2.58-136.944-32.9-83.034,18.707-123.717,27.738-42.683-26.447-75.03-15.48-39.127,98.695-91.814,38.058-70.25,109.662-147.06-38.7-79.142-83.859-158.729,38.7-99.373-154.171-170.4-38.7-80.588,40.641-111.266-2.58-31.012-10.965-76.7,25.158S554.3,325.77,483.493,281.9s-140.835,61.928-140.835,61.928" transform="translate(-329.171 -157.378)" fill="none" stroke="#99999c" stroke-linecap="round" stroke-miterlimit="10" stroke-width="0.5"/><path d="M1709.708,336.311s-70.028-23.223-137.721-38.7-84.367,32.9-126.05,32.9-43.35-34.834-75.363-17.418-39.35,102.566-95.7,30.963-74.363,119.984-151.728-23.22-79.7-104.5-158.729,23.22-98.373-127.722-165.734-23.22-76.364,27.091-107.376-9.678-31.679-3.869-76.365,23.223S551.912,315.024,481.884,286s-140.056,56.121-140.056,56.121" transform="translate(-329.378 -154.159)" fill="none" stroke="#99999c" stroke-linecap="round" stroke-miterlimit="10" stroke-width="0.5"/><path d="M1708.878,339.084s-70.028-43.865-138.5-44.509-85.7,47.09-128.384,38.058-44.018-43.218-75.7-19.351-39.572,106.435-99.6,23.867-78.477,130.3-156.4-7.74-80.254-125.144-158.729,7.74S854.2,235.874,790.51,329.408s-72.139,13.547-103.485-16.771-32.347,3.224-76.031,21.287S549.526,304.895,480.276,290.7,341,341.02,341,341.02" transform="translate(-329.586 -151.555)" fill="none" stroke="#99999c" stroke-linecap="round" stroke-miterlimit="10" stroke-width="0.5"/><path d="M1708.048,342.515s-70.028-64.508-139.277-50.316-87.036,61.281-130.72,43.221-44.684-51.607-76.03-21.289-39.795,110.308-103.486,16.774-82.589,140.624-161.064,7.74-80.81-145.787-158.731-7.74-96.372-74.828-156.395,7.74-67.917,0-99.6-23.867-33.013,10.32-75.7,19.351-59.913-38.7-128.385-38.058-138.5,44.509-138.5,44.509" transform="translate(-329.793 -149.61)" fill="none" stroke="#99999c" stroke-linecap="round" stroke-miterlimit="10" stroke-width="0.5"/><path d="M1707.218,346.6s-70.028-85.148-140.056-56.121-88.369,75.474-133.053,48.381-45.351-59.992-76.363-23.223-40.017,114.177-107.377,9.676-86.7,150.947-165.734,23.223S1003.27,182.11,925.905,325.314s-95.372-48.381-151.727,23.223-63.693-13.547-95.706-30.963-33.68,17.416-75.364,17.416-58.356-48.378-126.05-32.9-137.721,38.7-137.721,38.7" transform="translate(-330 -148.322)" fill="none" stroke="#99999c" stroke-linecap="round" stroke-miterlimit="10" stroke-width="0.5"/><path d="M1706.387,351.305s-70.028-105.79-140.834-61.928-89.7,89.666-135.387,53.541-46.019-68.376-76.7-25.156-40.238,118.046-111.266,2.58-90.814,161.267-170.4,38.7-81.921-187.069-158.729-38.7-94.371-21.934-147.059,38.7-59.468-27.091-91.815-38.058S639.85,345.5,599.167,336.47s-56.8-58.056-123.716-27.738-136.944,32.9-136.944,32.9" transform="translate(-330.208 -147.65)" fill="none" stroke="#99999c" stroke-linecap="round" stroke-miterlimit="10" stroke-width="0.5"/><path d="M1705.557,356.555s-70.028-126.433-141.612-67.732-91.036,103.855-137.723,58.7-46.685-76.763-77.031-27.094-40.461,121.92-115.157-4.516S1139.108,487.5,1058.966,370.1,976.488,162.39,900.235,315.915s-93.37,4.516-142.389,54.188-55.245-40.641-87.924-45.156-35.014,31.609-74.7,13.547-55.245-67.732-121.382-22.578-136.165,27.094-136.165,27.094" transform="translate(-330.415 -147.523)" fill="none" stroke="#99999c" stroke-linecap="round" stroke-miterlimit="10" stroke-width="0.5"/><path d="M1704.728,362.267s-70.028-147.076-142.39-73.537-92.37,118.048-140.056,63.861-47.352-85.148-77.365-29.027-40.683,125.789-119.047-11.611-99.039,181.909-179.738,69.668S963.1,153.266,887.4,311.953s-92.37,30.963-137.721,69.668-51.021-54.188-84.034-52.252-35.681,38.7-74.364,11.611-53.688-77.408-119.047-17.416-135.388,21.287-135.388,21.287" transform="translate(-330.623 -147.861)" fill="none" stroke="#99999c" stroke-linecap="round" stroke-miterlimit="10" stroke-width="0.5"/><path d="M1703.9,368.367s-70.028-167.718-143.169-79.343-93.7,132.24-142.389,69.023-48.02-93.535-77.7-30.965-40.906,129.66-122.938-18.707-103.152,192.232-184.407,85.15-83.588-249-158.73-85.15-91.37,57.412-133.053,85.15-46.8-67.732-80.143-59.348-36.349,45.8-74.03,9.678S535.208,256.77,470.627,331.6s-134.61,15.482-134.61,15.482" transform="translate(-330.83 -148.584)" fill="none" stroke="#99999c" stroke-linecap="round" stroke-miterlimit="10" stroke-width="0.5"/><path d="M1703.068,374.781s-70.029-188.361-143.947-85.15-95.038,146.431-144.725,74.183-48.686-101.921-78.031-32.9-41.128,133.529-126.829-25.8-107.265,202.552-189.076,100.63-84.145-269.637-158.73-100.63-90.37,83.859-128.385,100.63-42.573-81.279-76.253-66.441-37.014,52.894-73.7,7.74-50.577-96.759-114.38-7.1-133.832,9.676-133.832,9.676" transform="translate(-331.037 -149.622)" fill="none" stroke="#99999c" stroke-linecap="round" stroke-miterlimit="10" stroke-width="0.5"/><path d="M1702.237,381.453s-70.028-209-144.724-90.955-96.372,160.62-147.059,79.343-49.353-110.308-78.364-34.834-41.351,137.4-130.72-32.9-111.377,212.872-193.743,116.11S922.925,127.94,848.9,302.11,759.526,412.416,725.18,418.22s-38.349-94.824-72.363-73.537-37.681,59.992-73.363,5.8-49.02-106.435-112.045-1.936-133.053,3.871-133.053,3.871" transform="translate(-331.245 -150.918)" fill="none" stroke="#99999c" stroke-linecap="round" stroke-miterlimit="10" stroke-width="0.5"/><path d="M1701.406,388.334s-70.028-229.643-145.5-96.759-97.706,174.814-149.392,84.5-50.021-118.693-78.7-36.77S1286.241,480.58,1193.2,299.315s-115.491,223.194-198.412,131.6-85.257-310.924-158.731-131.6S747.693,436.07,717.013,430.91s-34.124-108.373-68.472-80.634-38.349,67.088-73.029,3.871-47.464-116.113-109.71,3.224-132.276-1.936-132.276-1.936" transform="translate(-331.452 -152.424)" fill="none" stroke="#99999c" stroke-linecap="round" stroke-miterlimit="10" stroke-width="0.5"/><path d="M1700.577,395.388S1630.549,145.1,1554.3,292.823s-99.04,189.005-151.728,89.664-50.687-127.077-79.032-38.7-41.794,145.14-138.5-47.09-119.6,233.514-203.081,147.075S896.144,112.2,823.226,296.694,735.858,459.9,708.847,443.769s-29.9-121.92-64.581-87.73-39.016,74.183-72.7,1.936-45.908-125.788-107.377,8.387-131.5-7.742-131.5-7.742" transform="translate(-331.66 -154.103)" fill="none" stroke="#99999c" stroke-linecap="round" stroke-miterlimit="10" stroke-width="0.5"/><path d="M1699.746,402.587s-70.028-270.928-147.058-108.373-100.374,203.2-154.062,94.826-51.354-135.464-79.365-40.641-42.017,149.011-142.391-54.185S1053.155,538.051,969.121,456.772,882.753,104.565,810.392,294.214,724.024,483.866,700.68,456.772,675,321.308,639.99,361.946s-39.682,81.279-72.363,0-44.352-135.464-105.042,13.547-130.718-13.547-130.718-13.547" transform="translate(-331.867 -155.925)" fill="none" stroke="#99999c" stroke-linecap="round" stroke-miterlimit="10" stroke-width="0.5"/></g><g transform="translate(0)" style="mix-blend-mode:overlay;isolation:isolate"><path d="M349.3,371.193s70.028-270.928,147.059-108.37,100.374,203.2,154.061,94.824,51.354-135.464,79.365-40.638S771.8,466.019,872.175,262.823s123.716,243.835,207.749,162.556,86.368-352.207,158.731-162.556,86.367,189.649,109.71,162.556,25.676-135.464,60.69-94.824,39.683,81.279,72.363,0S1525.77,195.091,1586.46,344.1s130.718-13.547,130.718-13.547" transform="translate(-327.512 -196.783)" fill="none" stroke="#99999c" stroke-linecap="round" stroke-miterlimit="10" stroke-width="0.5"/><path d="M1716.349,330.216s-70.028,141.915-131.5,7.742-73.7-80.635-107.375-8.387-38.016,32.254-72.7-1.936-37.57,71.6-64.581,87.73-41.461,37.414-114.38-147.075-75.252,60.636-158.73,147.075S960.714,76.061,864.009,268.291s-110.155,135.464-138.5,47.09-26.344-60.636-79.032,38.705S571,412.142,494.75,264.419,348.469,366.985,348.469,366.985" transform="translate(-327.719 -191.07)" fill="none" stroke="#99999c" stroke-linecap="round" stroke-miterlimit="10" stroke-width="0.5"/><path d="M1715.519,330.023s-70.028,121.273-132.275,1.936-75.03-66.441-109.711-3.224-38.682,23.867-73.029-3.871-37.792,75.472-68.472,80.635-45.574,47.734-119.048-131.6-75.808,39.994-158.729,131.6S948.88,92.637,855.842,273.9,749.91,395.819,721.233,313.9s-27.011-53.541-78.7,36.769-73.919,48.381-149.393-84.5-145.5,96.759-145.5,96.759" transform="translate(-327.927 -185.5)" fill="none" stroke="#99999c" stroke-linecap="round" stroke-miterlimit="10" stroke-width="0.5"/><path d="M1714.688,330s-70.028,100.63-133.053-3.871-76.364-52.25-112.045,1.936-39.35,15.482-73.363-5.8-38.015,79.343-72.362,73.537-49.686,58.056-123.716-116.113-76.365,19.354-158.731,116.113S937.045,109.387,847.676,279.685s-101.707,108.373-130.718,32.9-27.679-46.443-78.366,34.834-72.361,38.7-147.059-79.343-144.724,90.955-144.724,90.955" transform="translate(-328.134 -180.103)" fill="none" stroke="#99999c" stroke-linecap="round" stroke-miterlimit="10" stroke-width="0.5"/><path d="M1713.859,330.19s-70.028,79.988-133.832-9.678-77.7-38.058-114.378,7.1-40.016,7.1-73.7-7.742-38.237,83.215-76.253,66.443-53.8,68.376-128.384-100.63-76.921-1.291-158.731,100.63S925.21,126.347,839.509,285.681s-97.483,94.824-126.829,25.8-28.344-39.349-78.031,32.9S563.843,373.409,489.925,270.2s-143.947,85.148-143.947,85.148" transform="translate(-328.341 -174.915)" fill="none" stroke="#99999c" stroke-linecap="round" stroke-miterlimit="10" stroke-width="0.5"/><path d="M1713.029,330.635S1643,389.982,1578.42,315.155s-79.032-23.869-116.714,12.256-40.682-1.291-74.029-9.676-38.46,87.083-80.144,59.345-57.912,78.7-133.053-85.148S1097.005,270,1015.75,377.08,913.375,143.565,831.343,291.932s-93.26,81.279-122.938,18.707-29.011-32.254-77.7,30.963-69.251,19.351-142.391-69.023-143.168,79.343-143.168,79.343" transform="translate(-328.549 -169.986)" fill="none" stroke="#99999c" stroke-linecap="round" stroke-miterlimit="10" stroke-width="0.5"/><path d="M1712.2,331.4s-70.028,38.7-135.387-21.287-80.365-9.676-119.048,17.416-41.349-9.676-74.364-11.611-38.681,90.955-84.033,52.252-62.024,89.019-137.721-69.668-78.03-42.574-158.729,69.668S901.541,161.1,823.177,298.5s-89.036,67.732-119.048,11.611-29.678-25.158-77.364,29.027-67.693,9.676-140.056-63.861-142.39,73.537-142.39,73.537" transform="translate(-328.756 -165.372)" fill="none" stroke="#99999c" stroke-linecap="round" stroke-miterlimit="10" stroke-width="0.5"/><path d="M1711.369,332.545s-70.028,18.062-136.166-27.094-81.7,4.516-121.381,22.578-42.017-18.062-74.7-13.547-38.9,94.826-87.924,45.154-66.137,99.341-142.389-54.185-78.587-63.216-158.731,54.185S889.707,179.018,815.01,305.451s-84.811,54.185-115.157,4.516-30.346-18.062-77.031,27.094-66.137,0-137.721-58.7-141.613,67.732-141.613,67.732" transform="translate(-328.964 -161.143)" fill="none" stroke="#99999c" stroke-linecap="round" stroke-miterlimit="10" stroke-width="0.5"/><path d="M1710.539,334.154s-70.028-2.58-136.944-32.9-83.034,18.707-123.717,27.738-42.683-26.447-75.03-15.48-39.127,98.695-91.814,38.058-70.25,109.662-147.06-38.7-79.142-83.859-158.729,38.7-99.373-154.171-170.4-38.7-80.588,40.641-111.266-2.58-31.012-10.965-76.7,25.158S554.3,325.77,483.493,281.9s-140.835,61.928-140.835,61.928" transform="translate(-329.171 -157.378)" fill="none" stroke="#99999c" stroke-linecap="round" stroke-miterlimit="10" stroke-width="0.5"/><path d="M1709.708,336.311s-70.028-23.223-137.721-38.7-84.367,32.9-126.05,32.9-43.35-34.834-75.363-17.418-39.35,102.566-95.7,30.963-74.363,119.984-151.728-23.22-79.7-104.5-158.729,23.22-98.373-127.722-165.734-23.22-76.364,27.091-107.376-9.678-31.679-3.869-76.365,23.223S551.912,315.024,481.884,286s-140.056,56.121-140.056,56.121" transform="translate(-329.378 -154.159)" fill="none" stroke="#99999c" stroke-linecap="round" stroke-miterlimit="10" stroke-width="0.5"/><path d="M1708.878,339.084s-70.028-43.865-138.5-44.509-85.7,47.09-128.384,38.058-44.018-43.218-75.7-19.351-39.572,106.435-99.6,23.867-78.477,130.3-156.4-7.74-80.254-125.144-158.729,7.74S854.2,235.874,790.51,329.408s-72.139,13.547-103.485-16.771-32.347,3.224-76.031,21.287S549.526,304.895,480.276,290.7,341,341.02,341,341.02" transform="translate(-329.586 -151.555)" fill="none" stroke="#99999c" stroke-linecap="round" stroke-miterlimit="10" stroke-width="0.5"/><path d="M1708.048,342.515s-70.028-64.508-139.277-50.316-87.036,61.281-130.72,43.221-44.684-51.607-76.03-21.289-39.795,110.308-103.486,16.774-82.589,140.624-161.064,7.74-80.81-145.787-158.731-7.74-96.372-74.828-156.395,7.74-67.917,0-99.6-23.867-33.013,10.32-75.7,19.351-59.913-38.7-128.385-38.058-138.5,44.509-138.5,44.509" transform="translate(-329.793 -149.61)" fill="none" stroke="#99999c" stroke-linecap="round" stroke-miterlimit="10" stroke-width="0.5"/><path d="M1707.218,346.6s-70.028-85.148-140.056-56.121-88.369,75.474-133.053,48.381-45.351-59.992-76.363-23.223-40.017,114.177-107.377,9.676-86.7,150.947-165.734,23.223S1003.27,182.11,925.905,325.314s-95.372-48.381-151.727,23.223-63.693-13.547-95.706-30.963-33.68,17.416-75.364,17.416-58.356-48.378-126.05-32.9-137.721,38.7-137.721,38.7" transform="translate(-330 -148.322)" fill="none" stroke="#99999c" stroke-linecap="round" stroke-miterlimit="10" stroke-width="0.5"/><path d="M1706.387,351.305s-70.028-105.79-140.834-61.928-89.7,89.666-135.387,53.541-46.019-68.376-76.7-25.156-40.238,118.046-111.266,2.58-90.814,161.267-170.4,38.7-81.921-187.069-158.729-38.7-94.371-21.934-147.059,38.7-59.468-27.091-91.815-38.058S639.85,345.5,599.167,336.47s-56.8-58.056-123.716-27.738-136.944,32.9-136.944,32.9" transform="translate(-330.208 -147.65)" fill="none" stroke="#99999c" stroke-linecap="round" stroke-miterlimit="10" stroke-width="0.5"/><path d="M1705.557,356.555s-70.028-126.433-141.612-67.732-91.036,103.855-137.723,58.7-46.685-76.763-77.031-27.094-40.461,121.92-115.157-4.516S1139.108,487.5,1058.966,370.1,976.488,162.39,900.235,315.915s-93.37,4.516-142.389,54.188-55.245-40.641-87.924-45.156-35.014,31.609-74.7,13.547-55.245-67.732-121.382-22.578-136.165,27.094-136.165,27.094" transform="translate(-330.415 -147.523)" fill="none" stroke="#99999c" stroke-linecap="round" stroke-miterlimit="10" stroke-width="0.5"/><path d="M1704.728,362.267s-70.028-147.076-142.39-73.537-92.37,118.048-140.056,63.861-47.352-85.148-77.365-29.027-40.683,125.789-119.047-11.611-99.039,181.909-179.738,69.668S963.1,153.266,887.4,311.953s-92.37,30.963-137.721,69.668-51.021-54.188-84.034-52.252-35.681,38.7-74.364,11.611-53.688-77.408-119.047-17.416-135.388,21.287-135.388,21.287" transform="translate(-330.623 -147.861)" fill="none" stroke="#99999c" stroke-linecap="round" stroke-miterlimit="10" stroke-width="0.5"/><path d="M1703.9,368.367s-70.028-167.718-143.169-79.343-93.7,132.24-142.389,69.023-48.02-93.535-77.7-30.965-40.906,129.66-122.938-18.707-103.152,192.232-184.407,85.15-83.588-249-158.73-85.15-91.37,57.412-133.053,85.15-46.8-67.732-80.143-59.348-36.349,45.8-74.03,9.678S535.208,256.77,470.627,331.6s-134.61,15.482-134.61,15.482" transform="translate(-330.83 -148.584)" fill="none" stroke="#99999c" stroke-linecap="round" stroke-miterlimit="10" stroke-width="0.5"/><path d="M1703.068,374.781s-70.029-188.361-143.947-85.15-95.038,146.431-144.725,74.183-48.686-101.921-78.031-32.9-41.128,133.529-126.829-25.8-107.265,202.552-189.076,100.63-84.145-269.637-158.73-100.63-90.37,83.859-128.385,100.63-42.573-81.279-76.253-66.441-37.014,52.894-73.7,7.74-50.577-96.759-114.38-7.1-133.832,9.676-133.832,9.676" transform="translate(-331.037 -149.622)" fill="none" stroke="#99999c" stroke-linecap="round" stroke-miterlimit="10" stroke-width="0.5"/><path d="M1702.237,381.453s-70.028-209-144.724-90.955-96.372,160.62-147.059,79.343-49.353-110.308-78.364-34.834-41.351,137.4-130.72-32.9-111.377,212.872-193.743,116.11S922.925,127.94,848.9,302.11,759.526,412.416,725.18,418.22s-38.349-94.824-72.363-73.537-37.681,59.992-73.363,5.8-49.02-106.435-112.045-1.936-133.053,3.871-133.053,3.871" transform="translate(-331.245 -150.918)" fill="none" stroke="#99999c" stroke-linecap="round" stroke-miterlimit="10" stroke-width="0.5"/><path d="M1701.406,388.334s-70.028-229.643-145.5-96.759-97.706,174.814-149.392,84.5-50.021-118.693-78.7-36.77S1286.241,480.58,1193.2,299.315s-115.491,223.194-198.412,131.6-85.257-310.924-158.731-131.6S747.693,436.07,717.013,430.91s-34.124-108.373-68.472-80.634-38.349,67.088-73.029,3.871-47.464-116.113-109.71,3.224-132.276-1.936-132.276-1.936" transform="translate(-331.452 -152.424)" fill="none" stroke="#99999c" stroke-linecap="round" stroke-miterlimit="10" stroke-width="0.5"/><path d="M1700.577,395.388S1630.549,145.1,1554.3,292.823s-99.04,189.005-151.728,89.664-50.687-127.077-79.032-38.7-41.794,145.14-138.5-47.09-119.6,233.514-203.081,147.075S896.144,112.2,823.226,296.694,735.858,459.9,708.847,443.769s-29.9-121.92-64.581-87.73-39.016,74.183-72.7,1.936-45.908-125.788-107.377,8.387-131.5-7.742-131.5-7.742" transform="translate(-331.66 -154.103)" fill="none" stroke="#99999c" stroke-linecap="round" stroke-miterlimit="10" stroke-width="0.5"/><path d="M1699.746,402.587s-70.028-270.928-147.058-108.373-100.374,203.2-154.062,94.826-51.354-135.464-79.365-40.641-42.017,149.011-142.391-54.185S1053.155,538.051,969.121,456.772,882.753,104.565,810.392,294.214,724.024,483.866,700.68,456.772,675,321.308,639.99,361.946s-39.682,81.279-72.363,0-44.352-135.464-105.042,13.547-130.718-13.547-130.718-13.547" transform="translate(-331.867 -155.925)" fill="none" stroke="#99999c" stroke-linecap="round" stroke-miterlimit="10" stroke-width="0.5"/></g></g></svg>