<svg xmlns="http://www.w3.org/2000/svg" xmlns:xlink="http://www.w3.org/1999/xlink" width="182" height="182" viewBox="0 0 182 182">
  <defs>
    <clipPath id="clip-path">
      <rect id="Rectangle_3736" data-name="Rectangle 3736" width="182" height="182" transform="translate(973 924)" fill="#99999c" stroke="#707070" stroke-width="1"/>
    </clipPath>
  </defs>
  <g id="Mask_Group_780" data-name="Mask Group 780" transform="translate(-973 -924)" opacity="0.17" clip-path="url(#clip-path)">
    <g id="CATEGORY" transform="translate(972.999 923.999)">
      <path id="Path_19898" data-name="Path 19898" d="M66.86,8.229A13.029,13.029,0,0,1,79.889,21.258V79.889H21.258A13.029,13.029,0,0,1,8.229,66.86v-45.6A13.029,13.029,0,0,1,21.258,8.229h45.6m0-6.515h-45.6A19.544,19.544,0,0,0,1.714,21.258v45.6A19.544,19.544,0,0,0,21.258,86.4H79.889A6.515,6.515,0,0,0,86.4,79.889V21.258A19.544,19.544,0,0,0,66.86,1.714Z" transform="translate(-1.714 -1.714)" fill="#99999c"/>
      <path id="Path_19899" data-name="Path 19899" d="M79.717,8.229A13.029,13.029,0,0,1,92.746,21.258v45.6A13.029,13.029,0,0,1,79.717,79.889H21.086V21.258A13.029,13.029,0,0,1,34.115,8.229h45.6m0-6.515h-45.6A19.544,19.544,0,0,0,14.571,21.258V79.889A6.515,6.515,0,0,0,21.086,86.4H79.717A19.544,19.544,0,0,0,99.261,66.86v-45.6A19.544,19.544,0,0,0,79.717,1.714Z" transform="translate(83.147 -1.714)" fill="#99999c"/>
      <path id="Path_19900" data-name="Path 19900" d="M79.889,21.086V79.717A13.029,13.029,0,0,1,66.86,92.746h-45.6A13.029,13.029,0,0,1,8.229,79.717v-45.6A13.029,13.029,0,0,1,21.258,21.086H79.889m0-6.515H21.258A19.544,19.544,0,0,0,1.714,34.115v45.6A19.544,19.544,0,0,0,21.258,99.261h45.6A19.544,19.544,0,0,0,86.4,79.717V21.086A6.515,6.515,0,0,0,79.889,14.571Z" transform="translate(-1.714 83.147)" fill="#99999c"/>
      <path id="Path_19901" data-name="Path 19901" d="M79.717,21.086A13.029,13.029,0,0,1,92.746,34.115v45.6A13.029,13.029,0,0,1,79.717,92.746h-45.6A13.029,13.029,0,0,1,21.086,79.717V21.086H79.717m0-6.515H21.086a6.515,6.515,0,0,0-6.515,6.515V79.717A19.544,19.544,0,0,0,34.115,99.261h45.6A19.544,19.544,0,0,0,99.261,79.717v-45.6A19.544,19.544,0,0,0,79.717,14.571Z" transform="translate(83.147 83.147)" fill="#99999c"/>
    </g>
  </g>
</svg>
