<svg id="Layer_1" data-name="Layer 1" xmlns="http://www.w3.org/2000/svg" viewBox="0 0 32 32"><defs><style>.cls-1{fill:#fcbf17;}</style></defs><circle class="cls-1" cx="23.5" cy="9.5" r="7"/><path d="M28.5,2.5H2.5a1,1,0,0,0-1,1v19a1,1,0,0,0,1,1h10v5h-3a.5.5,0,0,0,0,1h12a.5.5,0,0,0,0-1h-3v-5h10a1,1,0,0,0,1-1V3.5A1,1,0,0,0,28.5,2.5Zm-11,26h-4v-5h4Zm11-6H2.5v-3h26Zm-26-4V3.5h26v15Z"/><path d="M12,13a.57.57,0,0,1-.28-.08l-3-2a.51.51,0,0,1,0-.84l3-2a.5.5,0,1,1,.56.84L9.9,10.5l2.38,1.58a.51.51,0,0,1,.14.7A.52.52,0,0,1,12,13Z"/><path d="M19,13a.52.52,0,0,1-.42-.22.51.51,0,0,1,.14-.7L21.1,10.5,18.72,8.92a.5.5,0,1,1,.56-.84l3,2a.51.51,0,0,1,0,.84l-3,2A.57.57,0,0,1,19,13Z"/><path d="M14,13a.49.49,0,0,1-.3-.1.5.5,0,0,1-.1-.7l3-4a.51.51,0,0,1,.7-.1.5.5,0,0,1,.1.7l-3,4A.51.51,0,0,1,14,13Z"/></svg>